<svg width="45" height="45" viewBox="0 0 45 45" fill="none" xmlns="http://www.w3.org/2000/svg">
<path d="M36.1312 9.99375C33.6375 8.83125 30.9375 7.9875 28.125 7.5C28.0755 7.5007 28.0283 7.52092 27.9937 7.55625C27.6562 8.175 27.2625 8.98125 27 9.6C24.0168 9.15028 20.9831 9.15028 18 9.6C17.7375 8.9625 17.3437 8.175 16.9875 7.55625C16.9687 7.51875 16.9125 7.5 16.8562 7.5C14.0437 7.9875 11.3625 8.83125 8.84998 9.99375C8.83123 9.99375 8.81248 10.0125 8.79373 10.0312C3.69373 17.6625 2.28748 25.0875 2.98123 32.4375C2.98123 32.475 2.99998 32.5125 3.03748 32.5313C6.41248 35.0063 9.65623 36.5063 12.8625 37.5C12.9187 37.5187 12.975 37.5 12.9937 37.4625C13.7437 36.4312 14.4187 35.3437 15 34.2C15.0375 34.125 15 34.05 14.925 34.0312C13.8562 33.6187 12.8437 33.1313 11.85 32.5688C11.775 32.5313 11.775 32.4188 11.8312 32.3625C12.0375 32.2125 12.2437 32.0438 12.45 31.8938C12.4875 31.8563 12.5437 31.8563 12.5812 31.875C19.0312 34.8188 25.9875 34.8188 32.3625 31.875C32.4 31.8563 32.4562 31.8563 32.4937 31.8938C32.7 32.0625 32.9062 32.2125 33.1125 32.3813C33.1875 32.4375 33.1875 32.55 33.0937 32.5875C32.1187 33.1687 31.0875 33.6375 30.0187 34.05C29.9437 34.0687 29.925 34.1625 29.9437 34.2188C30.5437 35.3625 31.2187 36.45 31.95 37.4812C32.0062 37.5 32.0625 37.5187 32.1187 37.5C35.3437 36.5063 38.5875 35.0063 41.9625 32.5313C42 32.5125 42.0187 32.475 42.0187 32.4375C42.8437 23.9437 40.65 16.575 36.2062 10.0312C36.1875 10.0125 36.1687 9.99375 36.1312 9.99375ZM15.975 27.9562C14.0437 27.9562 12.4312 26.175 12.4312 23.9812C12.4312 21.7875 14.0062 20.0063 15.975 20.0063C17.9625 20.0063 19.5375 21.8062 19.5187 23.9812C19.5187 26.175 17.9437 27.9562 15.975 27.9562ZM29.0437 27.9562C27.1125 27.9562 25.5 26.175 25.5 23.9812C25.5 21.7875 27.075 20.0063 29.0437 20.0063C31.0312 20.0063 32.6062 21.8062 32.5875 23.9812C32.5875 26.175 31.0312 27.9562 29.0437 27.9562Z" fill="black"/>
</svg>
