<svg width="45" height="45" viewBox="0 0 45 45" fill="none" xmlns="http://www.w3.org/2000/svg">
<path d="M14.625 3.75H30.375C36.375 3.75 41.25 8.625 41.25 14.625V30.375C41.25 33.2592 40.1042 36.0253 38.0648 38.0648C36.0253 40.1042 33.2592 41.25 30.375 41.25H14.625C8.625 41.25 3.75 36.375 3.75 30.375V14.625C3.75 11.7408 4.89576 8.97467 6.93521 6.93521C8.97467 4.89576 11.7408 3.75 14.625 3.75ZM14.25 7.5C12.4598 7.5 10.7429 8.21116 9.47703 9.47703C8.21116 10.7429 7.5 12.4598 7.5 14.25V30.75C7.5 34.4812 10.5187 37.5 14.25 37.5H30.75C32.5402 37.5 34.2571 36.7888 35.523 35.523C36.7888 34.2571 37.5 32.5402 37.5 30.75V14.25C37.5 10.5187 34.4812 7.5 30.75 7.5H14.25ZM32.3438 10.3125C32.9654 10.3125 33.5615 10.5594 34.001 10.999C34.4406 11.4385 34.6875 12.0346 34.6875 12.6562C34.6875 13.2779 34.4406 13.874 34.001 14.3135C33.5615 14.7531 32.9654 15 32.3438 15C31.7221 15 31.126 14.7531 30.6865 14.3135C30.2469 13.874 30 13.2779 30 12.6562C30 12.0346 30.2469 11.4385 30.6865 10.999C31.126 10.5594 31.7221 10.3125 32.3438 10.3125ZM22.5 13.125C24.9864 13.125 27.371 14.1127 29.1291 15.8709C30.8873 17.629 31.875 20.0136 31.875 22.5C31.875 24.9864 30.8873 27.371 29.1291 29.1291C27.371 30.8873 24.9864 31.875 22.5 31.875C20.0136 31.875 17.629 30.8873 15.8709 29.1291C14.1127 27.371 13.125 24.9864 13.125 22.5C13.125 20.0136 14.1127 17.629 15.8709 15.8709C17.629 14.1127 20.0136 13.125 22.5 13.125ZM22.5 16.875C21.0082 16.875 19.5774 17.4676 18.5225 18.5225C17.4676 19.5774 16.875 21.0082 16.875 22.5C16.875 23.9918 17.4676 25.4226 18.5225 26.4775C19.5774 27.5324 21.0082 28.125 22.5 28.125C23.9918 28.125 25.4226 27.5324 26.4775 26.4775C27.5324 25.4226 28.125 23.9918 28.125 22.5C28.125 21.0082 27.5324 19.5774 26.4775 18.5225C25.4226 17.4676 23.9918 16.875 22.5 16.875Z" fill="white"/>
</svg>
