<svg width="34" height="38" viewBox="0 0 34 38" fill="none" xmlns="http://www.w3.org/2000/svg">
<path d="M30.2222 0C31.2242 0 32.185 0.44484 32.8935 1.23666C33.602 2.02848 34 3.10242 34 4.22222V33.7778C34 34.8976 33.602 35.9715 32.8935 36.7633C32.185 37.5552 31.2242 38 30.2222 38H3.77778C2.77585 38 1.81496 37.5552 1.10649 36.7633C0.398015 35.9715 0 34.8976 0 33.7778V4.22222C0 3.10242 0.398015 2.02848 1.10649 1.23666C1.81496 0.44484 2.77585 0 3.77778 0H30.2222ZM29.2778 32.7222V21.5333C29.2778 19.7081 28.629 17.9575 27.4742 16.6669C26.3194 15.3762 24.7531 14.6511 23.12 14.6511C21.5144 14.6511 19.6444 15.7489 18.7378 17.3956V15.0522H13.4678V32.7222H18.7378V22.3144C18.7378 20.6889 19.9089 19.3589 21.3633 19.3589C22.0647 19.3589 22.7373 19.6703 23.2332 20.2246C23.7292 20.7788 24.0078 21.5306 24.0078 22.3144V32.7222H29.2778ZM7.32889 11.7378C8.17051 11.7378 8.97766 11.3641 9.57277 10.699C10.1679 10.0339 10.5022 9.13175 10.5022 8.19111C10.5022 6.22778 9.08556 4.62333 7.32889 4.62333C6.48226 4.62333 5.6703 4.99922 5.07165 5.66831C4.47299 6.3374 4.13667 7.24488 4.13667 8.19111C4.13667 10.1544 5.57222 11.7378 7.32889 11.7378ZM9.95445 32.7222V15.0522H4.72222V32.7222H9.95445Z" fill="white"/>
</svg>
